<?xml version="1.0" standalone="no"?><!DOCTYPE svg PUBLIC "-//W3C//DTD SVG 1.1//EN" "http://www.w3.org/Graphics/SVG/1.1/DTD/svg11.dtd"><svg t="1603172457612" class="icon" viewBox="0 0 1024 1024" version="1.1" xmlns="http://www.w3.org/2000/svg" p-id="8615" width="1024" height="1024" xmlns:xlink="http://www.w3.org/1999/xlink"><defs><style type="text/css"></style></defs><path d="M712 548.8c-48-1.6-86.4 36.8-86.4 83.2 1.6 48 40 84.8 86.4 83.2 48 0 86.4-38.4 88-83.2-1.6-46.4-40-83.2-88-83.2z" p-id="8616" fill="#fddf01"></path><path d="M512 0C228.8 0 0 228.8 0 512s228.8 512 512 512 512-228.8 512-512S795.2 0 512 0z m99.2 188.8c38.4 0 68.8 30.4 68.8 67.2 0 38.4-30.4 67.2-68.8 68.8-38.4 0-68.8-30.4-68.8-67.2s28.8-67.2 68.8-68.8zM315.2 768c-75.2 0-137.6-60.8-139.2-134.4 1.6-73.6 62.4-134.4 137.6-134.4 76.8-1.6 137.6 59.2 137.6 134.4 0 73.6-60.8 134.4-136 134.4z m222.4-259.2c6.4 6.4 11.2 16 11.2 25.6v139.2c0 20.8-16 36.8-36.8 36.8-19.2-1.6-35.2-17.6-36.8-38.4v-123.2l-92.8-89.6c-6.4-6.4-11.2-16-11.2-25.6s3.2-19.2 11.2-25.6l94.4-92.8c6.4-6.4 16-11.2 25.6-11.2s19.2 3.2 25.6 11.2l67.2 67.2h96c20.8 0 36.8 16 36.8 35.2 0 20.8-16 36.8-36.8 36.8h-110.4c-9.6 0-19.2-3.2-25.6-11.2l-52.8-51.2-43.2 41.6 78.4 75.2zM712 768c-73.6 1.6-136-59.2-137.6-134.4 1.6-73.6 62.4-134.4 137.6-134.4 76.8-1.6 137.6 59.2 137.6 134.4 0 73.6-62.4 134.4-137.6 134.4z" p-id="8617" fill="#fddf01"></path><path d="M315.2 548.8c-48-1.6-86.4 36.8-86.4 83.2 1.6 48 40 84.8 86.4 83.2 48 0 86.4-38.4 86.4-83.2 0-46.4-38.4-83.2-86.4-83.2z" p-id="8618" fill="#fddf01"></path></svg>